<svg xmlns="http://www.w3.org/2000/svg" xmlns:xlink="http://www.w3.org/1999/xlink" width="200" zoomAndPan="magnify" viewBox="0 0 150 37.5" height="50" preserveAspectRatio="xMidYMid meet" version="1.0"><defs><g/><clipPath id="id1"><path d="M 2.101562 3.699219 L 28.746094 3.699219 L 28.746094 30 L 2.101562 30 Z M 2.101562 3.699219 " clip-rule="nonzero"/></clipPath><clipPath id="id2"><path d="M 73 36 L 74 36 L 74 37.007812 L 73 37.007812 Z M 73 36 " clip-rule="nonzero"/></clipPath></defs><g clip-path="url(#id1)"><path fill="#f6f6f6" d="M 15.421875 3.949219 C 8.0625 3.949219 2.101562 9.914062 2.101562 17.273438 C 2.101562 23.167969 5.914062 28.148438 11.210938 29.914062 C 11.875 30.027344 12.125 29.628906 12.125 29.28125 C 12.125 28.964844 12.109375 27.914062 12.109375 26.796875 C 8.761719 27.414062 7.894531 25.980469 7.628906 25.234375 C 7.480469 24.851562 6.828125 23.667969 6.261719 23.351562 C 5.796875 23.101562 5.132812 22.484375 6.246094 22.46875 C 7.296875 22.453125 8.046875 23.433594 8.296875 23.835938 C 9.496094 25.847656 11.410156 25.28125 12.175781 24.933594 C 12.292969 24.066406 12.640625 23.484375 13.023438 23.152344 C 10.058594 22.816406 6.964844 21.667969 6.964844 16.574219 C 6.964844 15.125 7.480469 13.925781 8.328125 12.992188 C 8.195312 12.660156 7.730469 11.292969 8.460938 9.460938 C 8.460938 9.460938 9.578125 9.113281 12.125 10.828125 C 13.191406 10.527344 14.324219 10.378906 15.457031 10.378906 C 16.589844 10.378906 17.722656 10.527344 18.785156 10.828125 C 21.335938 9.097656 22.449219 9.460938 22.449219 9.460938 C 23.183594 11.292969 22.714844 12.660156 22.582031 12.992188 C 23.433594 13.925781 23.949219 15.109375 23.949219 16.574219 C 23.949219 21.6875 20.835938 22.816406 17.871094 23.152344 C 18.355469 23.566406 18.769531 24.367188 18.769531 25.617188 C 18.769531 27.398438 18.753906 28.828125 18.753906 29.28125 C 18.753906 29.628906 19.003906 30.046875 19.667969 29.914062 C 20.328125 29.691406 20.960938 29.417969 21.578125 29.097656 C 22.191406 28.777344 22.777344 28.410156 23.335938 27.996094 C 23.894531 27.585938 24.417969 27.132812 24.902344 26.636719 C 25.390625 26.144531 25.835938 25.613281 26.242188 25.050781 C 26.644531 24.488281 27.003906 23.898438 27.316406 23.277344 C 27.628906 22.660156 27.890625 22.019531 28.105469 21.359375 C 28.316406 20.699219 28.476562 20.027344 28.582031 19.339844 C 28.691406 18.65625 28.746094 17.964844 28.746094 17.273438 C 28.746094 9.914062 22.785156 3.949219 15.421875 3.949219 Z M 15.421875 3.949219 " fill-opacity="1" fill-rule="nonzero"/></g><g clip-path="url(#id2)"><g fill="#000000" fill-opacity="1"><g transform="translate(72.986393, 37.974668)"><g><path d="M 0.34375 0.015625 C 0.300781 0.015625 0.257812 0.0078125 0.21875 0 C 0.1875 -0.0195312 0.160156 -0.046875 0.140625 -0.078125 C 0.117188 -0.109375 0.101562 -0.140625 0.09375 -0.171875 C 0.0820312 -0.210938 0.078125 -0.257812 0.078125 -0.3125 C 0.078125 -0.375 0.0820312 -0.429688 0.09375 -0.484375 C 0.113281 -0.546875 0.140625 -0.597656 0.171875 -0.640625 C 0.210938 -0.691406 0.253906 -0.726562 0.296875 -0.75 C 0.347656 -0.78125 0.398438 -0.796875 0.453125 -0.796875 C 0.492188 -0.796875 0.53125 -0.785156 0.5625 -0.765625 C 0.601562 -0.753906 0.632812 -0.734375 0.65625 -0.703125 C 0.675781 -0.679688 0.691406 -0.648438 0.703125 -0.609375 C 0.722656 -0.566406 0.734375 -0.519531 0.734375 -0.46875 C 0.734375 -0.414062 0.722656 -0.359375 0.703125 -0.296875 C 0.679688 -0.234375 0.65625 -0.175781 0.625 -0.125 C 0.59375 -0.0820312 0.550781 -0.046875 0.5 -0.015625 C 0.445312 0.00390625 0.394531 0.015625 0.34375 0.015625 Z M 0.34375 -0.0625 C 0.382812 -0.0625 0.421875 -0.0703125 0.453125 -0.09375 C 0.492188 -0.125 0.523438 -0.15625 0.546875 -0.1875 C 0.578125 -0.226562 0.597656 -0.269531 0.609375 -0.3125 C 0.628906 -0.363281 0.640625 -0.414062 0.640625 -0.46875 C 0.640625 -0.539062 0.625 -0.597656 0.59375 -0.640625 C 0.5625 -0.691406 0.515625 -0.71875 0.453125 -0.71875 C 0.410156 -0.71875 0.367188 -0.707031 0.328125 -0.6875 C 0.296875 -0.664062 0.265625 -0.632812 0.234375 -0.59375 C 0.210938 -0.550781 0.195312 -0.503906 0.1875 -0.453125 C 0.175781 -0.410156 0.171875 -0.367188 0.171875 -0.328125 C 0.171875 -0.285156 0.171875 -0.25 0.171875 -0.21875 C 0.179688 -0.1875 0.191406 -0.160156 0.203125 -0.140625 C 0.222656 -0.117188 0.242188 -0.0976562 0.265625 -0.078125 C 0.285156 -0.0664062 0.3125 -0.0625 0.34375 -0.0625 Z M 0.125 -0.84375 L 0.09375 -0.90625 L 0.296875 -1.03125 L 0.328125 -0.96875 Z M 0.125 -0.84375 "/></g></g></g></g><g fill="#ffffff" fill-opacity="1"><g transform="translate(33.687435, 23.052136)"><g><path d="M 5.5625 -1.453125 C 6.09375 -1.453125 6.601562 -1.53125 7.09375 -1.6875 C 7.59375 -1.84375 7.984375 -2.039062 8.265625 -2.28125 L 8.265625 -3.625 L 5.875 -3.625 L 5.875 -5.125 L 10.125 -5.125 L 10.125 -1.546875 C 9.601562 -1.023438 8.929688 -0.613281 8.109375 -0.3125 C 7.285156 -0.0078125 6.421875 0.140625 5.515625 0.140625 C 3.929688 0.140625 2.710938 -0.296875 1.859375 -1.171875 C 1.003906 -2.054688 0.578125 -3.300781 0.578125 -4.90625 C 0.578125 -6.507812 1.003906 -7.738281 1.859375 -8.59375 C 2.722656 -9.445312 3.957031 -9.875 5.5625 -9.875 C 7.84375 -9.875 9.296875 -9.03125 9.921875 -7.34375 L 8.03125 -6.765625 C 7.832031 -7.265625 7.515625 -7.640625 7.078125 -7.890625 C 6.648438 -8.140625 6.144531 -8.265625 5.5625 -8.265625 C 4.601562 -8.265625 3.875 -7.972656 3.375 -7.390625 C 2.875 -6.816406 2.625 -5.988281 2.625 -4.90625 C 2.625 -3.8125 2.878906 -2.960938 3.390625 -2.359375 C 3.910156 -1.753906 4.632812 -1.453125 5.5625 -1.453125 Z M 5.5625 -1.453125 "/></g></g></g><g fill="#ffffff" fill-opacity="1"><g transform="translate(44.821053, 23.052136)"><g><path d="M 0.984375 -8.8125 L 0.984375 -10.25 L 2.921875 -10.25 L 2.921875 -8.8125 Z M 0.984375 0 L 0.984375 -7.46875 L 2.921875 -7.46875 L 2.921875 0 Z M 0.984375 0 "/></g></g></g><g fill="#ffffff" fill-opacity="1"><g transform="translate(48.888728, 23.052136)"><g><path d="M 2.90625 0.125 C 2.332031 0.125 1.890625 -0.03125 1.578125 -0.34375 C 1.273438 -0.65625 1.125 -1.125 1.125 -1.75 L 1.125 -6.15625 L 0.171875 -6.15625 L 0.171875 -7.46875 L 1.21875 -7.46875 L 1.828125 -9.21875 L 3.03125 -9.21875 L 3.03125 -7.46875 L 4.453125 -7.46875 L 4.453125 -6.15625 L 3.03125 -6.15625 L 3.03125 -2.28125 C 3.03125 -1.914062 3.097656 -1.644531 3.234375 -1.46875 C 3.378906 -1.300781 3.597656 -1.21875 3.890625 -1.21875 C 4.035156 -1.21875 4.25 -1.25 4.53125 -1.3125 L 4.53125 -0.109375 C 4.050781 0.046875 3.507812 0.125 2.90625 0.125 Z M 2.90625 0.125 "/></g></g></g><g fill="#ffffff" fill-opacity="1"><g transform="translate(53.736142, 23.052136)"><g><path d="M 7.21875 0 L 7.21875 -4.171875 L 2.984375 -4.171875 L 2.984375 0 L 0.953125 0 L 0.953125 -9.734375 L 2.984375 -9.734375 L 2.984375 -5.859375 L 7.21875 -5.859375 L 7.21875 -9.734375 L 9.265625 -9.734375 L 9.265625 0 Z M 7.21875 0 "/></g></g></g><g fill="#ffffff" fill-opacity="1"><g transform="translate(64.083121, 23.052136)"><g><path d="M 2.8125 -7.46875 L 2.8125 -3.28125 C 2.8125 -1.96875 3.253906 -1.3125 4.140625 -1.3125 C 4.609375 -1.3125 4.984375 -1.507812 5.265625 -1.90625 C 5.554688 -2.3125 5.703125 -2.832031 5.703125 -3.46875 L 5.703125 -7.46875 L 7.65625 -7.46875 L 7.65625 -1.671875 C 7.65625 -1.035156 7.671875 -0.476562 7.703125 0 L 5.859375 0 C 5.796875 -0.664062 5.765625 -1.160156 5.765625 -1.484375 L 5.734375 -1.484375 C 5.472656 -0.921875 5.144531 -0.507812 4.75 -0.25 C 4.351562 0.0078125 3.878906 0.140625 3.328125 0.140625 C 2.535156 0.140625 1.925781 -0.0976562 1.5 -0.578125 C 1.082031 -1.066406 0.875 -1.785156 0.875 -2.734375 L 0.875 -7.46875 Z M 2.8125 -7.46875 "/></g></g></g><g fill="#ffffff" fill-opacity="1"><g transform="translate(72.856824, 23.052136)"><g><path d="M 8.0625 -3.765625 C 8.0625 -2.523438 7.8125 -1.5625 7.3125 -0.875 C 6.820312 -0.195312 6.113281 0.140625 5.1875 0.140625 C 4.65625 0.140625 4.195312 0.0234375 3.8125 -0.203125 C 3.425781 -0.429688 3.128906 -0.765625 2.921875 -1.203125 L 2.90625 -1.203125 C 2.90625 -1.035156 2.894531 -0.8125 2.875 -0.53125 C 2.863281 -0.257812 2.84375 -0.0820312 2.8125 0 L 0.9375 0 C 0.96875 -0.425781 0.984375 -0.992188 0.984375 -1.703125 L 0.984375 -10.25 L 2.921875 -10.25 L 2.921875 -7.390625 L 2.90625 -6.171875 L 2.921875 -6.171875 C 3.359375 -7.128906 4.15625 -7.609375 5.3125 -7.609375 C 6.195312 -7.609375 6.875 -7.269531 7.34375 -6.59375 C 7.820312 -5.925781 8.0625 -4.984375 8.0625 -3.765625 Z M 6.03125 -3.765625 C 6.03125 -4.609375 5.90625 -5.234375 5.65625 -5.640625 C 5.40625 -6.054688 5.023438 -6.265625 4.515625 -6.265625 C 3.984375 -6.265625 3.582031 -6.039062 3.3125 -5.59375 C 3.039062 -5.15625 2.90625 -4.523438 2.90625 -3.703125 C 2.90625 -2.910156 3.035156 -2.289062 3.296875 -1.84375 C 3.566406 -1.40625 3.96875 -1.1875 4.5 -1.1875 C 5.519531 -1.1875 6.03125 -2.046875 6.03125 -3.765625 Z M 6.03125 -3.765625 "/></g></g></g><g fill="#ffffff" fill-opacity="1"><g transform="translate(81.622517, 23.052136)"><g/></g></g><g fill="#ffffff" fill-opacity="1"><g transform="translate(85.690193, 23.052136)"><g><path d="M 5.46875 -8.796875 C 4.394531 -8.796875 3.554688 -8.445312 2.953125 -7.75 C 2.359375 -7.0625 2.0625 -6.113281 2.0625 -4.90625 C 2.0625 -3.71875 2.367188 -2.757812 2.984375 -2.03125 C 3.609375 -1.3125 4.457031 -0.953125 5.53125 -0.953125 C 6.882812 -0.953125 7.90625 -1.625 8.59375 -2.96875 L 9.671875 -2.4375 C 9.273438 -1.59375 8.710938 -0.953125 7.984375 -0.515625 C 7.253906 -0.078125 6.414062 0.140625 5.46875 0.140625 C 4.476562 0.140625 3.625 -0.0625 2.90625 -0.46875 C 2.195312 -0.875 1.65625 -1.457031 1.28125 -2.21875 C 0.90625 -2.976562 0.71875 -3.875 0.71875 -4.90625 C 0.71875 -6.457031 1.132812 -7.671875 1.96875 -8.546875 C 2.8125 -9.429688 3.972656 -9.875 5.453125 -9.875 C 6.492188 -9.875 7.359375 -9.671875 8.046875 -9.265625 C 8.742188 -8.859375 9.253906 -8.257812 9.578125 -7.46875 L 8.328125 -7.046875 C 8.109375 -7.617188 7.75 -8.050781 7.25 -8.34375 C 6.75 -8.644531 6.15625 -8.796875 5.46875 -8.796875 Z M 5.46875 -8.796875 "/></g></g></g><g fill="#ffffff" fill-opacity="1"><g transform="translate(96.037172, 23.052136)"><g><path d="M 7.265625 -3.75 C 7.265625 -2.4375 6.976562 -1.457031 6.40625 -0.8125 C 5.832031 -0.175781 5 0.140625 3.90625 0.140625 C 2.8125 0.140625 1.984375 -0.191406 1.421875 -0.859375 C 0.867188 -1.523438 0.59375 -2.488281 0.59375 -3.75 C 0.59375 -6.320312 1.707031 -7.609375 3.9375 -7.609375 C 5.082031 -7.609375 5.921875 -7.289062 6.453125 -6.65625 C 6.992188 -6.03125 7.265625 -5.0625 7.265625 -3.75 Z M 5.96875 -3.75 C 5.96875 -4.769531 5.8125 -5.515625 5.5 -5.984375 C 5.195312 -6.453125 4.6875 -6.6875 3.96875 -6.6875 C 3.238281 -6.6875 2.710938 -6.445312 2.390625 -5.96875 C 2.066406 -5.5 1.90625 -4.757812 1.90625 -3.75 C 1.90625 -2.757812 2.0625 -2.015625 2.375 -1.515625 C 2.695312 -1.023438 3.203125 -0.78125 3.890625 -0.78125 C 4.628906 -0.78125 5.160156 -1.019531 5.484375 -1.5 C 5.804688 -1.976562 5.96875 -2.726562 5.96875 -3.75 Z M 5.96875 -3.75 "/></g></g></g><g fill="#ffffff" fill-opacity="1"><g transform="translate(104.038039, 23.052136)"><g><path d="M 0.953125 0 L 0.953125 -10.25 L 2.203125 -10.25 L 2.203125 0 Z M 0.953125 0 "/></g></g></g><g fill="#ffffff" fill-opacity="1"><g transform="translate(107.319075, 23.052136)"><g><path d="M 0.953125 0 L 0.953125 -10.25 L 2.203125 -10.25 L 2.203125 0 Z M 0.953125 0 "/></g></g></g><g fill="#ffffff" fill-opacity="1"><g transform="translate(110.600111, 23.052136)"><g><path d="M 1.90625 -3.46875 C 1.90625 -2.613281 2.082031 -1.953125 2.4375 -1.484375 C 2.789062 -1.023438 3.304688 -0.796875 3.984375 -0.796875 C 4.523438 -0.796875 4.957031 -0.898438 5.28125 -1.109375 C 5.601562 -1.328125 5.820312 -1.601562 5.9375 -1.9375 L 7.03125 -1.625 C 6.582031 -0.445312 5.566406 0.140625 3.984375 0.140625 C 2.878906 0.140625 2.035156 -0.1875 1.453125 -0.84375 C 0.878906 -1.507812 0.59375 -2.488281 0.59375 -3.78125 C 0.59375 -5.019531 0.878906 -5.96875 1.453125 -6.625 C 2.035156 -7.28125 2.863281 -7.609375 3.9375 -7.609375 C 6.132812 -7.609375 7.234375 -6.285156 7.234375 -3.640625 L 7.234375 -3.46875 Z M 5.953125 -4.421875 C 5.878906 -5.210938 5.675781 -5.785156 5.34375 -6.140625 C 5.019531 -6.503906 4.546875 -6.6875 3.921875 -6.6875 C 3.316406 -6.6875 2.835938 -6.484375 2.484375 -6.078125 C 2.128906 -5.679688 1.941406 -5.128906 1.921875 -4.421875 Z M 5.953125 -4.421875 "/></g></g></g><g fill="#ffffff" fill-opacity="1"><g transform="translate(118.600976, 23.052136)"><g><path d="M 1.90625 -3.765625 C 1.90625 -2.773438 2.0625 -2.039062 2.375 -1.5625 C 2.6875 -1.082031 3.15625 -0.84375 3.78125 -0.84375 C 4.226562 -0.84375 4.597656 -0.960938 4.890625 -1.203125 C 5.191406 -1.441406 5.375 -1.8125 5.4375 -2.3125 L 6.703125 -2.21875 C 6.597656 -1.5 6.285156 -0.925781 5.765625 -0.5 C 5.253906 -0.0703125 4.601562 0.140625 3.8125 0.140625 C 2.769531 0.140625 1.972656 -0.1875 1.421875 -0.84375 C 0.867188 -1.507812 0.59375 -2.476562 0.59375 -3.75 C 0.59375 -5 0.867188 -5.953125 1.421875 -6.609375 C 1.972656 -7.273438 2.765625 -7.609375 3.796875 -7.609375 C 4.566406 -7.609375 5.203125 -7.410156 5.703125 -7.015625 C 6.210938 -6.617188 6.53125 -6.070312 6.65625 -5.375 L 5.375 -5.28125 C 5.3125 -5.695312 5.148438 -6.023438 4.890625 -6.265625 C 4.628906 -6.515625 4.253906 -6.640625 3.765625 -6.640625 C 3.109375 -6.640625 2.632812 -6.421875 2.34375 -5.984375 C 2.050781 -5.546875 1.90625 -4.804688 1.90625 -3.765625 Z M 1.90625 -3.765625 "/></g></g></g><g fill="#ffffff" fill-opacity="1"><g transform="translate(125.808303, 23.052136)"><g><path d="M 3.828125 -0.0625 C 3.410156 0.0507812 2.988281 0.109375 2.5625 0.109375 C 1.570312 0.109375 1.078125 -0.453125 1.078125 -1.578125 L 1.078125 -6.5625 L 0.21875 -6.5625 L 0.21875 -7.46875 L 1.125 -7.46875 L 1.484375 -9.140625 L 2.3125 -9.140625 L 2.3125 -7.46875 L 3.703125 -7.46875 L 3.703125 -6.5625 L 2.3125 -6.5625 L 2.3125 -1.84375 C 2.3125 -1.488281 2.367188 -1.238281 2.484375 -1.09375 C 2.609375 -0.945312 2.816406 -0.875 3.109375 -0.875 C 3.273438 -0.875 3.515625 -0.90625 3.828125 -0.96875 Z M 3.828125 -0.0625 "/></g></g></g><g fill="#ffffff" fill-opacity="1"><g transform="translate(129.87598, 23.052136)"><g><path d="M 0.953125 -9.0625 L 0.953125 -10.25 L 2.1875 -10.25 L 2.1875 -9.0625 Z M 0.953125 0 L 0.953125 -7.46875 L 2.1875 -7.46875 L 2.1875 0 Z M 0.953125 0 "/></g></g></g><g fill="#ffffff" fill-opacity="1"><g transform="translate(133.157016, 23.052136)"><g><path d="M 7.265625 -3.75 C 7.265625 -2.4375 6.976562 -1.457031 6.40625 -0.8125 C 5.832031 -0.175781 5 0.140625 3.90625 0.140625 C 2.8125 0.140625 1.984375 -0.191406 1.421875 -0.859375 C 0.867188 -1.523438 0.59375 -2.488281 0.59375 -3.75 C 0.59375 -6.320312 1.707031 -7.609375 3.9375 -7.609375 C 5.082031 -7.609375 5.921875 -7.289062 6.453125 -6.65625 C 6.992188 -6.03125 7.265625 -5.0625 7.265625 -3.75 Z M 5.96875 -3.75 C 5.96875 -4.769531 5.8125 -5.515625 5.5 -5.984375 C 5.195312 -6.453125 4.6875 -6.6875 3.96875 -6.6875 C 3.238281 -6.6875 2.710938 -6.445312 2.390625 -5.96875 C 2.066406 -5.5 1.90625 -4.757812 1.90625 -3.75 C 1.90625 -2.757812 2.0625 -2.015625 2.375 -1.515625 C 2.695312 -1.023438 3.203125 -0.78125 3.890625 -0.78125 C 4.628906 -0.78125 5.160156 -1.019531 5.484375 -1.5 C 5.804688 -1.976562 5.96875 -2.726562 5.96875 -3.75 Z M 5.96875 -3.75 "/></g></g></g><g fill="#ffffff" fill-opacity="1"><g transform="translate(141.157882, 23.052136)"><g><path d="M 5.703125 0 L 5.703125 -4.734375 C 5.703125 -5.222656 5.648438 -5.601562 5.546875 -5.875 C 5.453125 -6.15625 5.296875 -6.351562 5.078125 -6.46875 C 4.867188 -6.59375 4.5625 -6.65625 4.15625 -6.65625 C 3.5625 -6.65625 3.085938 -6.445312 2.734375 -6.03125 C 2.390625 -5.625 2.21875 -5.054688 2.21875 -4.328125 L 2.21875 0 L 0.984375 0 L 0.984375 -5.875 C 0.984375 -6.75 0.96875 -7.28125 0.9375 -7.46875 L 2.109375 -7.46875 C 2.117188 -7.445312 2.125 -7.382812 2.125 -7.28125 C 2.132812 -7.175781 2.140625 -7.054688 2.140625 -6.921875 C 2.148438 -6.796875 2.160156 -6.550781 2.171875 -6.1875 L 2.1875 -6.1875 C 2.46875 -6.707031 2.796875 -7.070312 3.171875 -7.28125 C 3.554688 -7.5 4.023438 -7.609375 4.578125 -7.609375 C 5.398438 -7.609375 6 -7.40625 6.375 -7 C 6.757812 -6.59375 6.953125 -5.921875 6.953125 -4.984375 L 6.953125 0 Z M 5.703125 0 "/></g></g></g></svg>