<svg xmlns="http://www.w3.org/2000/svg" xmlns:xlink="http://www.w3.org/1999/xlink" width="100" zoomAndPan="magnify" viewBox="0 0 75 74.999997" height="100" preserveAspectRatio="xMidYMid meet" version="1.0"><defs><g/><clipPath id="id1"><path d="M 12.976562 4 L 61.726562 4 L 61.726562 52 L 12.976562 52 Z M 12.976562 4 " clip-rule="nonzero"/></clipPath></defs><g clip-path="url(#id1)"><path fill="#babbbd" d="M 37.351562 4.265625 C 23.882812 4.265625 12.976562 15.175781 12.976562 28.640625 C 12.976562 39.425781 19.953125 48.539062 29.644531 51.765625 C 30.863281 51.980469 31.320312 51.25 31.320312 50.609375 C 31.320312 50.03125 31.289062 48.109375 31.289062 46.070312 C 25.164062 47.195312 23.578125 44.578125 23.09375 43.207031 C 22.816406 42.503906 21.628906 40.339844 20.59375 39.761719 C 19.742188 39.304688 18.523438 38.179688 20.5625 38.148438 C 22.484375 38.117188 23.855469 39.914062 24.3125 40.644531 C 26.503906 44.332031 30.007812 43.296875 31.410156 42.65625 C 31.625 41.074219 32.261719 40.007812 32.964844 39.398438 C 27.539062 38.789062 21.875 36.683594 21.875 27.363281 C 21.875 24.710938 22.816406 22.515625 24.371094 20.8125 C 24.128906 20.203125 23.273438 17.703125 24.617188 14.351562 C 24.617188 14.351562 26.65625 13.710938 31.320312 16.851562 C 33.269531 16.300781 35.339844 16.027344 37.414062 16.027344 C 39.484375 16.027344 41.554688 16.300781 43.507812 16.851562 C 48.167969 13.679688 50.210938 14.351562 50.210938 14.351562 C 51.550781 17.703125 50.695312 20.203125 50.453125 20.8125 C 52.007812 22.515625 52.953125 24.679688 52.953125 27.363281 C 52.953125 36.714844 47.253906 38.789062 41.832031 39.398438 C 42.714844 40.160156 43.476562 41.621094 43.476562 43.90625 C 43.476562 47.167969 43.445312 49.785156 43.445312 50.609375 C 43.445312 51.25 43.902344 52.011719 45.121094 51.765625 C 46.324219 51.359375 47.488281 50.863281 48.613281 50.277344 C 49.738281 49.6875 50.808594 49.019531 51.832031 48.261719 C 52.851562 47.507812 53.808594 46.679688 54.699219 45.777344 C 55.589844 44.871094 56.40625 43.90625 57.144531 42.875 C 57.886719 41.84375 58.542969 40.761719 59.113281 39.628906 C 59.683594 38.496094 60.164062 37.324219 60.550781 36.117188 C 60.941406 34.910156 61.234375 33.679688 61.429688 32.425781 C 61.628906 31.171875 61.726562 29.910156 61.726562 28.640625 C 61.726562 15.175781 50.820312 4.265625 37.351562 4.265625 Z M 37.351562 4.265625 " fill-opacity="1" fill-rule="nonzero"/></g><g fill="#000000" fill-opacity="1"><g transform="translate(33.419095, 76.96199)"><g><path d="M 0.703125 0.03125 C 0.609375 0.03125 0.523438 0.015625 0.453125 -0.015625 C 0.390625 -0.046875 0.332031 -0.0859375 0.28125 -0.140625 C 0.238281 -0.203125 0.203125 -0.273438 0.171875 -0.359375 C 0.148438 -0.441406 0.140625 -0.535156 0.140625 -0.640625 C 0.140625 -0.765625 0.160156 -0.882812 0.203125 -1 C 0.242188 -1.113281 0.296875 -1.21875 0.359375 -1.3125 C 0.429688 -1.40625 0.515625 -1.476562 0.609375 -1.53125 C 0.703125 -1.59375 0.804688 -1.625 0.921875 -1.625 C 1.015625 -1.625 1.09375 -1.609375 1.15625 -1.578125 C 1.226562 -1.546875 1.285156 -1.5 1.328125 -1.4375 C 1.378906 -1.382812 1.414062 -1.316406 1.4375 -1.234375 C 1.46875 -1.148438 1.484375 -1.054688 1.484375 -0.953125 C 1.484375 -0.835938 1.460938 -0.71875 1.421875 -0.59375 C 1.378906 -0.476562 1.320312 -0.375 1.25 -0.28125 C 1.1875 -0.1875 1.109375 -0.109375 1.015625 -0.046875 C 0.921875 0.00390625 0.816406 0.03125 0.703125 0.03125 Z M 0.703125 -0.140625 C 0.796875 -0.140625 0.875 -0.160156 0.9375 -0.203125 C 1.007812 -0.253906 1.070312 -0.316406 1.125 -0.390625 C 1.175781 -0.472656 1.210938 -0.5625 1.234375 -0.65625 C 1.265625 -0.75 1.28125 -0.84375 1.28125 -0.9375 C 1.28125 -1.101562 1.25 -1.234375 1.1875 -1.328125 C 1.132812 -1.421875 1.046875 -1.46875 0.921875 -1.46875 C 0.828125 -1.46875 0.742188 -1.441406 0.671875 -1.390625 C 0.609375 -1.335938 0.550781 -1.269531 0.5 -1.1875 C 0.445312 -1.113281 0.40625 -1.03125 0.375 -0.9375 C 0.351562 -0.84375 0.34375 -0.75 0.34375 -0.65625 C 0.34375 -0.570312 0.347656 -0.5 0.359375 -0.4375 C 0.367188 -0.375 0.390625 -0.316406 0.421875 -0.265625 C 0.453125 -0.222656 0.488281 -0.191406 0.53125 -0.171875 C 0.582031 -0.148438 0.640625 -0.140625 0.703125 -0.140625 Z M 1.265625 -1.71875 L 1.1875 -1.828125 L 1.59375 -2.109375 L 1.6875 -1.953125 Z M 1.265625 -1.71875 "/></g></g></g><g fill="#000000" fill-opacity="1"><g transform="translate(73.913107, 58.791732)"><g/></g></g><g fill="#1abd43" fill-opacity="1"><g transform="translate(2.404268, 69.005842)"><g><path d="M 1.671875 -6.890625 C 1.910156 -7.003906 2.125 -7.078125 2.3125 -7.109375 C 2.5 -7.140625 2.679688 -7.15625 2.859375 -7.15625 C 3.046875 -7.15625 3.226562 -7.140625 3.40625 -7.109375 C 3.59375 -7.078125 3.796875 -7.015625 4.015625 -6.921875 C 4.234375 -6.828125 4.429688 -6.703125 4.609375 -6.546875 C 4.785156 -6.390625 4.9375 -6.175781 5.0625 -5.90625 C 5.195312 -5.644531 5.285156 -5.335938 5.328125 -4.984375 C 5.328125 -4.835938 5.257812 -4.765625 5.125 -4.765625 L 5.03125 -4.765625 C 4.90625 -4.765625 4.835938 -4.828125 4.828125 -4.953125 C 4.796875 -5.234375 4.722656 -5.484375 4.609375 -5.703125 C 4.503906 -5.921875 4.378906 -6.085938 4.234375 -6.203125 C 4.097656 -6.316406 3.9375 -6.410156 3.75 -6.484375 C 3.476562 -6.597656 3.222656 -6.65625 2.984375 -6.65625 C 2.753906 -6.65625 2.5625 -6.640625 2.40625 -6.609375 C 2.257812 -6.585938 2.09375 -6.53125 1.90625 -6.4375 C 1.71875 -6.351562 1.550781 -6.238281 1.40625 -6.09375 C 1.269531 -5.945312 1.148438 -5.738281 1.046875 -5.46875 C 0.953125 -5.207031 0.90625 -4.90625 0.90625 -4.5625 L 0.90625 -2.578125 C 0.90625 -2.234375 0.953125 -1.925781 1.046875 -1.65625 C 1.148438 -1.394531 1.269531 -1.191406 1.40625 -1.046875 C 1.550781 -0.898438 1.71875 -0.78125 1.90625 -0.6875 C 2.101562 -0.601562 2.273438 -0.546875 2.421875 -0.515625 C 2.578125 -0.492188 2.726562 -0.484375 2.875 -0.484375 C 3.03125 -0.484375 3.179688 -0.492188 3.328125 -0.515625 C 3.472656 -0.546875 3.640625 -0.601562 3.828125 -0.6875 C 4.015625 -0.769531 4.179688 -0.878906 4.328125 -1.015625 C 4.472656 -1.160156 4.59375 -1.359375 4.6875 -1.609375 C 4.789062 -1.859375 4.84375 -2.144531 4.84375 -2.46875 L 4.84375 -3.0625 L 3.15625 -3.0625 C 3.03125 -3.0625 2.96875 -3.128906 2.96875 -3.265625 L 2.96875 -3.359375 C 2.96875 -3.410156 2.984375 -3.457031 3.015625 -3.5 C 3.054688 -3.539062 3.101562 -3.5625 3.15625 -3.5625 L 4.921875 -3.5625 C 5.191406 -3.5625 5.328125 -3.414062 5.328125 -3.125 L 5.328125 -2.46875 C 5.328125 -2.050781 5.265625 -1.6875 5.140625 -1.375 C 5.015625 -1.0625 4.863281 -0.816406 4.6875 -0.640625 C 4.519531 -0.472656 4.316406 -0.34375 4.078125 -0.25 C 3.691406 -0.0703125 3.289062 0.015625 2.875 0.015625 C 2.445312 0.015625 2.078125 -0.0546875 1.765625 -0.203125 C 1.460938 -0.359375 1.21875 -0.523438 1.03125 -0.703125 C 0.851562 -0.878906 0.703125 -1.125 0.578125 -1.4375 C 0.460938 -1.757812 0.40625 -2.128906 0.40625 -2.546875 L 0.40625 -4.609375 C 0.40625 -5.035156 0.46875 -5.410156 0.59375 -5.734375 C 0.71875 -6.054688 0.867188 -6.300781 1.046875 -6.46875 C 1.222656 -6.644531 1.429688 -6.785156 1.671875 -6.890625 Z M 1.671875 -6.890625 "/></g></g></g><g fill="#1abd43" fill-opacity="1"><g transform="translate(8.395181, 69.005842)"><g><path d="M 0.953125 -7.09375 L 1.046875 -7.09375 C 1.097656 -7.09375 1.144531 -7.070312 1.1875 -7.03125 C 1.226562 -7 1.25 -6.953125 1.25 -6.890625 L 1.25 -0.203125 C 1.25 -0.148438 1.226562 -0.101562 1.1875 -0.0625 C 1.144531 -0.0195312 1.097656 0 1.046875 0 L 0.953125 0 C 0.890625 0 0.835938 -0.0195312 0.796875 -0.0625 C 0.765625 -0.101562 0.75 -0.148438 0.75 -0.203125 L 0.75 -6.890625 C 0.75 -6.953125 0.765625 -7 0.796875 -7.03125 C 0.835938 -7.070312 0.890625 -7.09375 0.953125 -7.09375 Z M 0.953125 -7.09375 "/></g></g></g><g fill="#1abd43" fill-opacity="1"><g transform="translate(10.523975, 69.005842)"><g><path d="M 2.4375 -6.328125 L 2.546875 -6.328125 C 2.679688 -6.328125 2.75 -6.265625 2.75 -6.140625 L 2.75 -0.203125 C 2.75 -0.148438 2.726562 -0.101562 2.6875 -0.0625 C 2.65625 -0.0195312 2.609375 0 2.546875 0 L 2.4375 0 C 2.382812 0 2.335938 -0.0195312 2.296875 -0.0625 C 2.253906 -0.101562 2.234375 -0.148438 2.234375 -0.203125 L 2.234375 -6.140625 C 2.234375 -6.265625 2.300781 -6.328125 2.4375 -6.328125 Z M 0.25 -7.09375 L 4.75 -7.09375 C 4.8125 -7.09375 4.859375 -7.070312 4.890625 -7.03125 C 4.929688 -7 4.953125 -6.953125 4.953125 -6.890625 L 4.953125 -6.78125 C 4.953125 -6.664062 4.882812 -6.609375 4.75 -6.609375 L 0.25 -6.609375 C 0.113281 -6.609375 0.046875 -6.664062 0.046875 -6.78125 L 0.046875 -6.890625 C 0.046875 -6.953125 0.0664062 -7 0.109375 -7.03125 C 0.148438 -7.070312 0.195312 -7.09375 0.25 -7.09375 Z M 0.25 -7.09375 "/></g></g></g><g fill="#1abd43" fill-opacity="1"><g transform="translate(15.693808, 69.005842)"><g/></g></g><g fill="#1abd43" fill-opacity="1"><g transform="translate(20.863641, 69.005842)"><g><path d="M 1.671875 -6.890625 C 1.910156 -7.003906 2.125 -7.078125 2.3125 -7.109375 C 2.5 -7.140625 2.679688 -7.15625 2.859375 -7.15625 C 3.046875 -7.15625 3.226562 -7.140625 3.40625 -7.109375 C 3.59375 -7.078125 3.796875 -7.015625 4.015625 -6.921875 C 4.234375 -6.828125 4.429688 -6.703125 4.609375 -6.546875 C 4.785156 -6.390625 4.9375 -6.175781 5.0625 -5.90625 C 5.195312 -5.644531 5.285156 -5.335938 5.328125 -4.984375 C 5.328125 -4.835938 5.257812 -4.765625 5.125 -4.765625 L 5.03125 -4.765625 C 4.90625 -4.765625 4.835938 -4.828125 4.828125 -4.953125 C 4.796875 -5.234375 4.722656 -5.484375 4.609375 -5.703125 C 4.503906 -5.921875 4.378906 -6.085938 4.234375 -6.203125 C 4.097656 -6.316406 3.9375 -6.410156 3.75 -6.484375 C 3.476562 -6.597656 3.222656 -6.65625 2.984375 -6.65625 C 2.753906 -6.65625 2.5625 -6.640625 2.40625 -6.609375 C 2.257812 -6.585938 2.09375 -6.53125 1.90625 -6.4375 C 1.71875 -6.351562 1.550781 -6.238281 1.40625 -6.09375 C 1.269531 -5.945312 1.148438 -5.738281 1.046875 -5.46875 C 0.953125 -5.207031 0.90625 -4.90625 0.90625 -4.5625 L 0.90625 -2.578125 C 0.90625 -2.234375 0.957031 -1.925781 1.0625 -1.65625 C 1.175781 -1.394531 1.304688 -1.191406 1.453125 -1.046875 C 1.609375 -0.898438 1.785156 -0.785156 1.984375 -0.703125 C 2.304688 -0.554688 2.609375 -0.484375 2.890625 -0.484375 C 3.179688 -0.484375 3.425781 -0.507812 3.625 -0.5625 C 3.820312 -0.613281 4.019531 -0.703125 4.21875 -0.828125 C 4.632812 -1.097656 4.84375 -1.585938 4.84375 -2.296875 C 4.84375 -2.410156 4.859375 -2.484375 4.890625 -2.515625 C 4.929688 -2.554688 4.984375 -2.578125 5.046875 -2.578125 L 5.125 -2.578125 C 5.257812 -2.578125 5.328125 -2.507812 5.328125 -2.375 C 5.328125 -1.957031 5.257812 -1.59375 5.125 -1.28125 C 5 -0.976562 4.847656 -0.742188 4.671875 -0.578125 C 4.492188 -0.421875 4.289062 -0.296875 4.0625 -0.203125 C 3.695312 -0.0546875 3.375 0.015625 3.09375 0.015625 C 2.820312 0.015625 2.585938 0 2.390625 -0.03125 C 2.191406 -0.0703125 1.96875 -0.148438 1.71875 -0.265625 C 1.46875 -0.378906 1.25 -0.523438 1.0625 -0.703125 C 0.882812 -0.878906 0.726562 -1.125 0.59375 -1.4375 C 0.46875 -1.757812 0.40625 -2.128906 0.40625 -2.546875 L 0.40625 -4.609375 C 0.40625 -5.035156 0.46875 -5.410156 0.59375 -5.734375 C 0.71875 -6.054688 0.867188 -6.300781 1.046875 -6.46875 C 1.222656 -6.644531 1.429688 -6.785156 1.671875 -6.890625 Z M 1.671875 -6.890625 "/></g></g></g><g fill="#1abd43" fill-opacity="1"><g transform="translate(26.682229, 69.005842)"><g><path d="M 1.765625 -6.859375 C 2.015625 -6.960938 2.226562 -7.023438 2.40625 -7.046875 C 2.59375 -7.078125 2.78125 -7.09375 2.96875 -7.09375 C 3.164062 -7.09375 3.359375 -7.078125 3.546875 -7.046875 C 3.734375 -7.015625 3.945312 -6.945312 4.1875 -6.84375 C 4.425781 -6.738281 4.632812 -6.597656 4.8125 -6.421875 C 4.988281 -6.253906 5.140625 -6.007812 5.265625 -5.6875 C 5.390625 -5.375 5.453125 -5.015625 5.453125 -4.609375 L 5.453125 -2.546875 C 5.453125 -2.117188 5.390625 -1.742188 5.265625 -1.421875 C 5.140625 -1.097656 4.984375 -0.847656 4.796875 -0.671875 C 4.617188 -0.492188 4.410156 -0.351562 4.171875 -0.25 C 3.796875 -0.0703125 3.398438 0.015625 2.984375 0.015625 C 2.546875 0.015625 2.171875 -0.0546875 1.859375 -0.203125 C 1.554688 -0.359375 1.316406 -0.523438 1.140625 -0.703125 C 0.960938 -0.878906 0.8125 -1.125 0.6875 -1.4375 C 0.5625 -1.757812 0.5 -2.128906 0.5 -2.546875 L 0.5 -4.609375 C 0.5 -5.035156 0.5625 -5.40625 0.6875 -5.71875 C 0.8125 -6.039062 0.960938 -6.285156 1.140625 -6.453125 C 1.316406 -6.617188 1.523438 -6.753906 1.765625 -6.859375 Z M 3.921875 -6.40625 C 3.734375 -6.488281 3.566406 -6.539062 3.421875 -6.5625 C 3.273438 -6.59375 3.125 -6.609375 2.96875 -6.609375 C 2.820312 -6.609375 2.671875 -6.59375 2.515625 -6.5625 C 2.367188 -6.539062 2.195312 -6.488281 2 -6.40625 C 1.8125 -6.320312 1.644531 -6.207031 1.5 -6.0625 C 1.363281 -5.925781 1.242188 -5.726562 1.140625 -5.46875 C 1.046875 -5.207031 1 -4.90625 1 -4.5625 L 1 -2.578125 C 1 -2.234375 1.046875 -1.925781 1.140625 -1.65625 C 1.242188 -1.394531 1.367188 -1.191406 1.515625 -1.046875 C 1.660156 -0.898438 1.828125 -0.78125 2.015625 -0.6875 C 2.203125 -0.601562 2.375 -0.546875 2.53125 -0.515625 C 2.6875 -0.492188 2.835938 -0.484375 2.984375 -0.484375 C 3.128906 -0.484375 3.273438 -0.492188 3.421875 -0.515625 C 3.578125 -0.546875 3.75 -0.601562 3.9375 -0.6875 C 4.132812 -0.78125 4.300781 -0.898438 4.4375 -1.046875 C 4.582031 -1.191406 4.703125 -1.394531 4.796875 -1.65625 C 4.898438 -1.925781 4.953125 -2.234375 4.953125 -2.578125 L 4.953125 -4.5625 C 4.953125 -4.90625 4.898438 -5.207031 4.796875 -5.46875 C 4.691406 -5.726562 4.566406 -5.925781 4.421875 -6.0625 C 4.285156 -6.207031 4.117188 -6.320312 3.921875 -6.40625 Z M 3.921875 -6.40625 "/></g></g></g><g fill="#1abd43" fill-opacity="1"><g transform="translate(32.92656, 69.005842)"><g><path d="M 0.71875 -7.09375 L 0.828125 -7.09375 C 0.878906 -7.09375 0.925781 -7.070312 0.96875 -7.03125 C 1.007812 -7 1.03125 -6.953125 1.03125 -6.890625 L 1.03125 -0.5 L 4.40625 -0.5 C 4.539062 -0.5 4.609375 -0.429688 4.609375 -0.296875 L 4.609375 -0.203125 C 4.609375 -0.148438 4.585938 -0.101562 4.546875 -0.0625 C 4.515625 -0.0195312 4.46875 0 4.40625 0 L 0.9375 0 C 0.65625 0 0.515625 -0.144531 0.515625 -0.4375 L 0.515625 -6.890625 C 0.515625 -6.953125 0.535156 -7 0.578125 -7.03125 C 0.617188 -7.070312 0.664062 -7.09375 0.71875 -7.09375 Z M 0.71875 -7.09375 "/></g></g></g><g fill="#1abd43" fill-opacity="1"><g transform="translate(38.086254, 69.005842)"><g><path d="M 0.71875 -7.09375 L 0.828125 -7.09375 C 0.878906 -7.09375 0.925781 -7.070312 0.96875 -7.03125 C 1.007812 -7 1.03125 -6.953125 1.03125 -6.890625 L 1.03125 -0.5 L 4.40625 -0.5 C 4.539062 -0.5 4.609375 -0.429688 4.609375 -0.296875 L 4.609375 -0.203125 C 4.609375 -0.148438 4.585938 -0.101562 4.546875 -0.0625 C 4.515625 -0.0195312 4.46875 0 4.40625 0 L 0.9375 0 C 0.65625 0 0.515625 -0.144531 0.515625 -0.4375 L 0.515625 -6.890625 C 0.515625 -6.953125 0.535156 -7 0.578125 -7.03125 C 0.617188 -7.070312 0.664062 -7.09375 0.71875 -7.09375 Z M 0.71875 -7.09375 "/></g></g></g><g fill="#1abd43" fill-opacity="1"><g transform="translate(43.245948, 69.005842)"><g><path d="M 1.03125 -7.09375 L 4.578125 -7.09375 C 4.628906 -7.09375 4.675781 -7.070312 4.71875 -7.03125 C 4.757812 -7 4.78125 -6.953125 4.78125 -6.890625 L 4.78125 -6.796875 C 4.78125 -6.742188 4.757812 -6.695312 4.71875 -6.65625 C 4.675781 -6.625 4.628906 -6.609375 4.578125 -6.609375 L 1.140625 -6.609375 L 1.140625 -0.5 L 4.578125 -0.5 C 4.628906 -0.5 4.675781 -0.476562 4.71875 -0.4375 C 4.757812 -0.40625 4.78125 -0.359375 4.78125 -0.296875 L 4.78125 -0.203125 C 4.78125 -0.148438 4.757812 -0.101562 4.71875 -0.0625 C 4.675781 -0.0195312 4.628906 0 4.578125 0 L 1.03125 0 C 0.863281 0 0.753906 -0.0351562 0.703125 -0.109375 C 0.648438 -0.179688 0.625 -0.28125 0.625 -0.40625 L 0.625 -6.703125 C 0.625 -6.835938 0.65625 -6.9375 0.71875 -7 C 0.78125 -7.0625 0.882812 -7.09375 1.03125 -7.09375 Z M 1.75 -3.9375 L 3.921875 -3.9375 C 3.972656 -3.9375 4.015625 -3.914062 4.046875 -3.875 C 4.085938 -3.832031 4.109375 -3.785156 4.109375 -3.734375 L 4.109375 -3.640625 C 4.109375 -3.503906 4.046875 -3.4375 3.921875 -3.4375 L 1.75 -3.4375 C 1.613281 -3.4375 1.546875 -3.503906 1.546875 -3.640625 L 1.546875 -3.734375 C 1.546875 -3.785156 1.5625 -3.832031 1.59375 -3.875 C 1.632812 -3.914062 1.6875 -3.9375 1.75 -3.9375 Z M 1.75 -3.9375 "/></g></g></g><g fill="#1abd43" fill-opacity="1"><g transform="translate(48.415782, 69.005842)"><g><path d="M 1.671875 -6.890625 C 1.910156 -7.003906 2.125 -7.078125 2.3125 -7.109375 C 2.5 -7.140625 2.679688 -7.15625 2.859375 -7.15625 C 3.046875 -7.15625 3.226562 -7.140625 3.40625 -7.109375 C 3.59375 -7.078125 3.796875 -7.015625 4.015625 -6.921875 C 4.234375 -6.828125 4.429688 -6.703125 4.609375 -6.546875 C 4.785156 -6.390625 4.9375 -6.175781 5.0625 -5.90625 C 5.195312 -5.644531 5.285156 -5.335938 5.328125 -4.984375 C 5.328125 -4.835938 5.257812 -4.765625 5.125 -4.765625 L 5.03125 -4.765625 C 4.90625 -4.765625 4.835938 -4.828125 4.828125 -4.953125 C 4.796875 -5.234375 4.722656 -5.484375 4.609375 -5.703125 C 4.503906 -5.921875 4.378906 -6.085938 4.234375 -6.203125 C 4.097656 -6.316406 3.9375 -6.410156 3.75 -6.484375 C 3.476562 -6.597656 3.222656 -6.65625 2.984375 -6.65625 C 2.753906 -6.65625 2.5625 -6.640625 2.40625 -6.609375 C 2.257812 -6.585938 2.09375 -6.53125 1.90625 -6.4375 C 1.71875 -6.351562 1.550781 -6.238281 1.40625 -6.09375 C 1.269531 -5.945312 1.148438 -5.738281 1.046875 -5.46875 C 0.953125 -5.207031 0.90625 -4.90625 0.90625 -4.5625 L 0.90625 -2.578125 C 0.90625 -2.234375 0.957031 -1.925781 1.0625 -1.65625 C 1.175781 -1.394531 1.304688 -1.191406 1.453125 -1.046875 C 1.609375 -0.898438 1.785156 -0.785156 1.984375 -0.703125 C 2.304688 -0.554688 2.609375 -0.484375 2.890625 -0.484375 C 3.179688 -0.484375 3.425781 -0.507812 3.625 -0.5625 C 3.820312 -0.613281 4.019531 -0.703125 4.21875 -0.828125 C 4.632812 -1.097656 4.84375 -1.585938 4.84375 -2.296875 C 4.84375 -2.410156 4.859375 -2.484375 4.890625 -2.515625 C 4.929688 -2.554688 4.984375 -2.578125 5.046875 -2.578125 L 5.125 -2.578125 C 5.257812 -2.578125 5.328125 -2.507812 5.328125 -2.375 C 5.328125 -1.957031 5.257812 -1.59375 5.125 -1.28125 C 5 -0.976562 4.847656 -0.742188 4.671875 -0.578125 C 4.492188 -0.421875 4.289062 -0.296875 4.0625 -0.203125 C 3.695312 -0.0546875 3.375 0.015625 3.09375 0.015625 C 2.820312 0.015625 2.585938 0 2.390625 -0.03125 C 2.191406 -0.0703125 1.96875 -0.148438 1.71875 -0.265625 C 1.46875 -0.378906 1.25 -0.523438 1.0625 -0.703125 C 0.882812 -0.878906 0.726562 -1.125 0.59375 -1.4375 C 0.46875 -1.757812 0.40625 -2.128906 0.40625 -2.546875 L 0.40625 -4.609375 C 0.40625 -5.035156 0.46875 -5.410156 0.59375 -5.734375 C 0.71875 -6.054688 0.867188 -6.300781 1.046875 -6.46875 C 1.222656 -6.644531 1.429688 -6.785156 1.671875 -6.890625 Z M 1.671875 -6.890625 "/></g></g></g><g fill="#1abd43" fill-opacity="1"><g transform="translate(54.234367, 69.005842)"><g><path d="M 2.4375 -6.328125 L 2.546875 -6.328125 C 2.679688 -6.328125 2.75 -6.265625 2.75 -6.140625 L 2.75 -0.203125 C 2.75 -0.148438 2.726562 -0.101562 2.6875 -0.0625 C 2.65625 -0.0195312 2.609375 0 2.546875 0 L 2.4375 0 C 2.382812 0 2.335938 -0.0195312 2.296875 -0.0625 C 2.253906 -0.101562 2.234375 -0.148438 2.234375 -0.203125 L 2.234375 -6.140625 C 2.234375 -6.265625 2.300781 -6.328125 2.4375 -6.328125 Z M 0.25 -7.09375 L 4.75 -7.09375 C 4.8125 -7.09375 4.859375 -7.070312 4.890625 -7.03125 C 4.929688 -7 4.953125 -6.953125 4.953125 -6.890625 L 4.953125 -6.78125 C 4.953125 -6.664062 4.882812 -6.609375 4.75 -6.609375 L 0.25 -6.609375 C 0.113281 -6.609375 0.046875 -6.664062 0.046875 -6.78125 L 0.046875 -6.890625 C 0.046875 -6.953125 0.0664062 -7 0.109375 -7.03125 C 0.148438 -7.070312 0.195312 -7.09375 0.25 -7.09375 Z M 0.25 -7.09375 "/></g></g></g><g fill="#1abd43" fill-opacity="1"><g transform="translate(59.404201, 69.005842)"><g><path d="M 0.953125 -7.09375 L 1.046875 -7.09375 C 1.097656 -7.09375 1.144531 -7.070312 1.1875 -7.03125 C 1.226562 -7 1.25 -6.953125 1.25 -6.890625 L 1.25 -0.203125 C 1.25 -0.148438 1.226562 -0.101562 1.1875 -0.0625 C 1.144531 -0.0195312 1.097656 0 1.046875 0 L 0.953125 0 C 0.890625 0 0.835938 -0.0195312 0.796875 -0.0625 C 0.765625 -0.101562 0.75 -0.148438 0.75 -0.203125 L 0.75 -6.890625 C 0.75 -6.953125 0.765625 -7 0.796875 -7.03125 C 0.835938 -7.070312 0.890625 -7.09375 0.953125 -7.09375 Z M 0.953125 -7.09375 "/></g></g></g><g fill="#1abd43" fill-opacity="1"><g transform="translate(61.532996, 69.005842)"><g><path d="M 1.765625 -6.859375 C 2.015625 -6.960938 2.226562 -7.023438 2.40625 -7.046875 C 2.59375 -7.078125 2.78125 -7.09375 2.96875 -7.09375 C 3.164062 -7.09375 3.359375 -7.078125 3.546875 -7.046875 C 3.734375 -7.015625 3.945312 -6.945312 4.1875 -6.84375 C 4.425781 -6.738281 4.632812 -6.597656 4.8125 -6.421875 C 4.988281 -6.253906 5.140625 -6.007812 5.265625 -5.6875 C 5.390625 -5.375 5.453125 -5.015625 5.453125 -4.609375 L 5.453125 -2.546875 C 5.453125 -2.117188 5.390625 -1.742188 5.265625 -1.421875 C 5.140625 -1.097656 4.984375 -0.847656 4.796875 -0.671875 C 4.617188 -0.492188 4.410156 -0.351562 4.171875 -0.25 C 3.796875 -0.0703125 3.398438 0.015625 2.984375 0.015625 C 2.546875 0.015625 2.171875 -0.0546875 1.859375 -0.203125 C 1.554688 -0.359375 1.316406 -0.523438 1.140625 -0.703125 C 0.960938 -0.878906 0.8125 -1.125 0.6875 -1.4375 C 0.5625 -1.757812 0.5 -2.128906 0.5 -2.546875 L 0.5 -4.609375 C 0.5 -5.035156 0.5625 -5.40625 0.6875 -5.71875 C 0.8125 -6.039062 0.960938 -6.285156 1.140625 -6.453125 C 1.316406 -6.617188 1.523438 -6.753906 1.765625 -6.859375 Z M 3.921875 -6.40625 C 3.734375 -6.488281 3.566406 -6.539062 3.421875 -6.5625 C 3.273438 -6.59375 3.125 -6.609375 2.96875 -6.609375 C 2.820312 -6.609375 2.671875 -6.59375 2.515625 -6.5625 C 2.367188 -6.539062 2.195312 -6.488281 2 -6.40625 C 1.8125 -6.320312 1.644531 -6.207031 1.5 -6.0625 C 1.363281 -5.925781 1.242188 -5.726562 1.140625 -5.46875 C 1.046875 -5.207031 1 -4.90625 1 -4.5625 L 1 -2.578125 C 1 -2.234375 1.046875 -1.925781 1.140625 -1.65625 C 1.242188 -1.394531 1.367188 -1.191406 1.515625 -1.046875 C 1.660156 -0.898438 1.828125 -0.78125 2.015625 -0.6875 C 2.203125 -0.601562 2.375 -0.546875 2.53125 -0.515625 C 2.6875 -0.492188 2.835938 -0.484375 2.984375 -0.484375 C 3.128906 -0.484375 3.273438 -0.492188 3.421875 -0.515625 C 3.578125 -0.546875 3.75 -0.601562 3.9375 -0.6875 C 4.132812 -0.78125 4.300781 -0.898438 4.4375 -1.046875 C 4.582031 -1.191406 4.703125 -1.394531 4.796875 -1.65625 C 4.898438 -1.925781 4.953125 -2.234375 4.953125 -2.578125 L 4.953125 -4.5625 C 4.953125 -4.90625 4.898438 -5.207031 4.796875 -5.46875 C 4.691406 -5.726562 4.566406 -5.925781 4.421875 -6.0625 C 4.285156 -6.207031 4.117188 -6.320312 3.921875 -6.40625 Z M 3.921875 -6.40625 "/></g></g></g><g fill="#1abd43" fill-opacity="1"><g transform="translate(67.777327, 69.005842)"><g><path d="M 0.90625 -7.125 C 1.082031 -7.125 1.222656 -7.039062 1.328125 -6.875 C 2.628906 -4.707031 3.828125 -2.648438 4.921875 -0.703125 L 4.921875 -6.890625 C 4.921875 -6.953125 4.941406 -7 4.984375 -7.03125 C 5.023438 -7.070312 5.070312 -7.09375 5.125 -7.09375 L 5.234375 -7.09375 C 5.296875 -7.09375 5.34375 -7.070312 5.375 -7.03125 C 5.414062 -7 5.4375 -6.953125 5.4375 -6.890625 L 5.4375 -0.375 C 5.4375 -0.238281 5.394531 -0.140625 5.3125 -0.078125 C 5.238281 -0.015625 5.128906 0.015625 4.984375 0.015625 C 4.847656 0.015625 4.734375 -0.0546875 4.640625 -0.203125 L 1.03125 -6.375 L 1.03125 -0.203125 C 1.03125 -0.148438 1.007812 -0.101562 0.96875 -0.0625 C 0.925781 -0.0195312 0.878906 0 0.828125 0 L 0.71875 0 C 0.664062 0 0.617188 -0.0195312 0.578125 -0.0625 C 0.546875 -0.101562 0.53125 -0.148438 0.53125 -0.203125 L 0.53125 -6.703125 C 0.53125 -6.984375 0.65625 -7.125 0.90625 -7.125 Z M 0.90625 -7.125 "/></g></g></g></svg>