<svg xmlns="http://www.w3.org/2000/svg" xmlns:xlink="http://www.w3.org/1999/xlink" width="150" zoomAndPan="magnify" viewBox="0 0 112.5 37.5" height="50" preserveAspectRatio="xMidYMid meet" version="1.0"><defs><g/><clipPath id="id1"><path d="M 2.03125 3.71875 L 29.535156 3.71875 L 29.535156 31 L 2.03125 31 Z M 2.03125 3.71875 " clip-rule="nonzero"/></clipPath><clipPath id="id2"><path d="M 54 37 L 55 37 L 55 37.007812 L 54 37.007812 Z M 54 37 " clip-rule="nonzero"/></clipPath></defs><g clip-path="url(#id1)"><path fill="#f6f6f6" d="M 15.78125 3.976562 C 8.183594 3.976562 2.03125 10.128906 2.03125 17.726562 C 2.03125 23.8125 5.964844 28.953125 11.433594 30.777344 C 12.121094 30.898438 12.378906 30.484375 12.378906 30.125 C 12.378906 29.796875 12.363281 28.714844 12.363281 27.5625 C 8.90625 28.199219 8.011719 26.71875 7.738281 25.945312 C 7.582031 25.550781 6.910156 24.328125 6.328125 24.003906 C 5.847656 23.746094 5.160156 23.109375 6.308594 23.09375 C 7.394531 23.074219 8.167969 24.089844 8.425781 24.5 C 9.664062 26.582031 11.640625 25.996094 12.429688 25.636719 C 12.550781 24.742188 12.910156 24.140625 13.308594 23.796875 C 10.246094 23.453125 7.050781 22.265625 7.050781 17.007812 C 7.050781 15.511719 7.582031 14.273438 8.460938 13.308594 C 8.320312 12.964844 7.839844 11.554688 8.597656 9.664062 C 8.597656 9.664062 9.75 9.304688 12.378906 11.074219 C 13.480469 10.765625 14.648438 10.609375 15.816406 10.609375 C 16.988281 10.609375 18.15625 10.765625 19.253906 11.074219 C 21.886719 9.289062 23.039062 9.664062 23.039062 9.664062 C 23.792969 11.554688 23.3125 12.964844 23.175781 13.308594 C 24.050781 14.273438 24.585938 15.492188 24.585938 17.007812 C 24.585938 22.285156 21.371094 23.453125 18.308594 23.796875 C 18.808594 24.226562 19.238281 25.050781 19.238281 26.339844 C 19.238281 28.179688 19.222656 29.660156 19.222656 30.125 C 19.222656 30.484375 19.480469 30.914062 20.167969 30.777344 C 20.84375 30.546875 21.503906 30.265625 22.136719 29.9375 C 22.773438 29.605469 23.378906 29.226562 23.953125 28.800781 C 24.527344 28.375 25.066406 27.90625 25.570312 27.394531 C 26.074219 26.886719 26.535156 26.339844 26.953125 25.757812 C 27.367188 25.175781 27.738281 24.566406 28.0625 23.925781 C 28.382812 23.289062 28.65625 22.628906 28.875 21.945312 C 29.09375 21.265625 29.257812 20.570312 29.371094 19.863281 C 29.480469 19.15625 29.535156 18.445312 29.535156 17.726562 C 29.535156 10.128906 23.382812 3.976562 15.78125 3.976562 Z M 15.78125 3.976562 " fill-opacity="1" fill-rule="nonzero"/></g><g clip-path="url(#id2)"><g fill="#000000" fill-opacity="1"><g transform="translate(54.227448, 38.143446)"><g><path d="M 0.34375 0.015625 C 0.300781 0.015625 0.257812 0.0078125 0.21875 0 C 0.1875 -0.0195312 0.160156 -0.046875 0.140625 -0.078125 C 0.117188 -0.109375 0.101562 -0.144531 0.09375 -0.1875 C 0.0820312 -0.226562 0.078125 -0.273438 0.078125 -0.328125 C 0.078125 -0.378906 0.0820312 -0.4375 0.09375 -0.5 C 0.113281 -0.5625 0.140625 -0.613281 0.171875 -0.65625 C 0.210938 -0.707031 0.253906 -0.742188 0.296875 -0.765625 C 0.347656 -0.796875 0.40625 -0.8125 0.46875 -0.8125 C 0.507812 -0.8125 0.546875 -0.800781 0.578125 -0.78125 C 0.609375 -0.769531 0.632812 -0.75 0.65625 -0.71875 C 0.6875 -0.6875 0.707031 -0.648438 0.71875 -0.609375 C 0.726562 -0.578125 0.734375 -0.535156 0.734375 -0.484375 C 0.734375 -0.421875 0.722656 -0.359375 0.703125 -0.296875 C 0.691406 -0.234375 0.664062 -0.179688 0.625 -0.140625 C 0.59375 -0.0976562 0.550781 -0.0625 0.5 -0.03125 C 0.457031 0 0.40625 0.015625 0.34375 0.015625 Z M 0.359375 -0.0625 C 0.398438 -0.0625 0.4375 -0.0703125 0.46875 -0.09375 C 0.507812 -0.125 0.539062 -0.160156 0.5625 -0.203125 C 0.582031 -0.242188 0.597656 -0.285156 0.609375 -0.328125 C 0.628906 -0.378906 0.640625 -0.425781 0.640625 -0.46875 C 0.640625 -0.550781 0.625 -0.613281 0.59375 -0.65625 C 0.5625 -0.707031 0.515625 -0.734375 0.453125 -0.734375 C 0.410156 -0.734375 0.367188 -0.71875 0.328125 -0.6875 C 0.296875 -0.664062 0.265625 -0.632812 0.234375 -0.59375 C 0.210938 -0.5625 0.195312 -0.519531 0.1875 -0.46875 C 0.175781 -0.425781 0.171875 -0.378906 0.171875 -0.328125 C 0.171875 -0.285156 0.171875 -0.25 0.171875 -0.21875 C 0.179688 -0.1875 0.191406 -0.160156 0.203125 -0.140625 C 0.222656 -0.117188 0.242188 -0.0976562 0.265625 -0.078125 C 0.296875 -0.0664062 0.328125 -0.0625 0.359375 -0.0625 Z M 0.125 -0.859375 L 0.09375 -0.90625 L 0.296875 -1.046875 L 0.34375 -0.984375 Z M 0.125 -0.859375 "/></g></g></g></g><g fill="#000000" fill-opacity="1"><g transform="translate(108.334645, 10.546246)"><g/></g></g><g fill="#ffffff" fill-opacity="1"><g transform="translate(35.086419, 20.712038)"><g><path d="M 1.71875 -7.078125 C 1.96875 -7.191406 2.1875 -7.257812 2.375 -7.28125 C 2.5625 -7.3125 2.742188 -7.328125 2.921875 -7.328125 C 3.109375 -7.328125 3.296875 -7.3125 3.484375 -7.28125 C 3.671875 -7.257812 3.878906 -7.195312 4.109375 -7.09375 C 4.335938 -6.988281 4.539062 -6.859375 4.71875 -6.703125 C 4.894531 -6.546875 5.050781 -6.332031 5.1875 -6.0625 C 5.332031 -5.789062 5.421875 -5.472656 5.453125 -5.109375 C 5.453125 -4.960938 5.382812 -4.890625 5.25 -4.890625 L 5.15625 -4.890625 C 5.03125 -4.890625 4.960938 -4.953125 4.953125 -5.078125 C 4.910156 -5.359375 4.832031 -5.609375 4.71875 -5.828125 C 4.613281 -6.054688 4.488281 -6.226562 4.34375 -6.34375 C 4.195312 -6.46875 4.03125 -6.566406 3.84375 -6.640625 C 3.5625 -6.753906 3.300781 -6.8125 3.0625 -6.8125 C 2.832031 -6.8125 2.640625 -6.796875 2.484375 -6.765625 C 2.328125 -6.742188 2.148438 -6.6875 1.953125 -6.59375 C 1.753906 -6.507812 1.582031 -6.390625 1.4375 -6.234375 C 1.289062 -6.085938 1.164062 -5.878906 1.0625 -5.609375 C 0.96875 -5.335938 0.921875 -5.023438 0.921875 -4.671875 L 0.921875 -2.640625 C 0.921875 -2.285156 0.972656 -1.972656 1.078125 -1.703125 C 1.179688 -1.429688 1.304688 -1.222656 1.453125 -1.078125 C 1.597656 -0.929688 1.769531 -0.8125 1.96875 -0.71875 C 2.164062 -0.625 2.335938 -0.5625 2.484375 -0.53125 C 2.640625 -0.507812 2.789062 -0.5 2.9375 -0.5 C 3.09375 -0.5 3.25 -0.507812 3.40625 -0.53125 C 3.5625 -0.5625 3.734375 -0.617188 3.921875 -0.703125 C 4.117188 -0.785156 4.289062 -0.894531 4.4375 -1.03125 C 4.582031 -1.175781 4.703125 -1.378906 4.796875 -1.640625 C 4.898438 -1.898438 4.953125 -2.195312 4.953125 -2.53125 L 4.953125 -3.140625 L 3.234375 -3.140625 C 3.097656 -3.140625 3.03125 -3.207031 3.03125 -3.34375 L 3.03125 -3.4375 C 3.03125 -3.488281 3.046875 -3.535156 3.078125 -3.578125 C 3.117188 -3.617188 3.171875 -3.640625 3.234375 -3.640625 L 5.046875 -3.640625 C 5.328125 -3.640625 5.46875 -3.492188 5.46875 -3.203125 L 5.46875 -2.53125 C 5.46875 -2.101562 5.398438 -1.726562 5.265625 -1.40625 C 5.140625 -1.082031 4.988281 -0.832031 4.8125 -0.65625 C 4.632812 -0.488281 4.421875 -0.351562 4.171875 -0.25 C 3.773438 -0.0703125 3.367188 0.015625 2.953125 0.015625 C 2.503906 0.015625 2.125 -0.0625 1.8125 -0.21875 C 1.5 -0.375 1.25 -0.539062 1.0625 -0.71875 C 0.882812 -0.894531 0.734375 -1.144531 0.609375 -1.46875 C 0.484375 -1.800781 0.421875 -2.179688 0.421875 -2.609375 L 0.421875 -4.71875 C 0.421875 -5.15625 0.484375 -5.539062 0.609375 -5.875 C 0.734375 -6.207031 0.882812 -6.460938 1.0625 -6.640625 C 1.25 -6.816406 1.46875 -6.960938 1.71875 -7.078125 Z M 1.71875 -7.078125 "/></g></g></g><g fill="#ffffff" fill-opacity="1"><g transform="translate(41.223884, 20.712038)"><g><path d="M 0.984375 -7.265625 L 1.0625 -7.265625 C 1.125 -7.265625 1.175781 -7.242188 1.21875 -7.203125 C 1.257812 -7.171875 1.28125 -7.125 1.28125 -7.0625 L 1.28125 -0.203125 C 1.28125 -0.148438 1.257812 -0.101562 1.21875 -0.0625 C 1.175781 -0.0195312 1.125 0 1.0625 0 L 0.984375 0 C 0.921875 0 0.867188 -0.0195312 0.828125 -0.0625 C 0.785156 -0.101562 0.765625 -0.148438 0.765625 -0.203125 L 0.765625 -7.0625 C 0.765625 -7.125 0.785156 -7.171875 0.828125 -7.203125 C 0.867188 -7.242188 0.921875 -7.265625 0.984375 -7.265625 Z M 0.984375 -7.265625 "/></g></g></g><g fill="#ffffff" fill-opacity="1"><g transform="translate(43.404814, 20.712038)"><g><path d="M 2.5 -6.484375 L 2.609375 -6.484375 C 2.742188 -6.484375 2.8125 -6.414062 2.8125 -6.28125 L 2.8125 -0.203125 C 2.8125 -0.148438 2.789062 -0.101562 2.75 -0.0625 C 2.71875 -0.0195312 2.671875 0 2.609375 0 L 2.5 0 C 2.4375 0 2.382812 -0.0195312 2.34375 -0.0625 C 2.3125 -0.101562 2.296875 -0.148438 2.296875 -0.203125 L 2.296875 -6.28125 C 2.296875 -6.414062 2.363281 -6.484375 2.5 -6.484375 Z M 0.265625 -7.265625 L 4.875 -7.265625 C 4.9375 -7.265625 4.984375 -7.242188 5.015625 -7.203125 C 5.054688 -7.171875 5.078125 -7.125 5.078125 -7.0625 L 5.078125 -6.953125 C 5.078125 -6.828125 5.007812 -6.765625 4.875 -6.765625 L 0.265625 -6.765625 C 0.117188 -6.765625 0.046875 -6.828125 0.046875 -6.953125 L 0.046875 -7.0625 C 0.046875 -7.125 0.0664062 -7.171875 0.109375 -7.203125 C 0.148438 -7.242188 0.203125 -7.265625 0.265625 -7.265625 Z M 0.265625 -7.265625 "/></g></g></g><g fill="#ffffff" fill-opacity="1"><g transform="translate(48.701132, 20.712038)"><g/></g></g><g fill="#ffffff" fill-opacity="1"><g transform="translate(53.997451, 20.712038)"><g><path d="M 1.71875 -7.078125 C 1.96875 -7.191406 2.1875 -7.257812 2.375 -7.28125 C 2.5625 -7.3125 2.742188 -7.328125 2.921875 -7.328125 C 3.109375 -7.328125 3.296875 -7.3125 3.484375 -7.28125 C 3.671875 -7.257812 3.878906 -7.195312 4.109375 -7.09375 C 4.335938 -6.988281 4.539062 -6.859375 4.71875 -6.703125 C 4.894531 -6.546875 5.050781 -6.332031 5.1875 -6.0625 C 5.332031 -5.789062 5.421875 -5.472656 5.453125 -5.109375 C 5.453125 -4.960938 5.382812 -4.890625 5.25 -4.890625 L 5.15625 -4.890625 C 5.03125 -4.890625 4.960938 -4.953125 4.953125 -5.078125 C 4.910156 -5.359375 4.832031 -5.609375 4.71875 -5.828125 C 4.613281 -6.054688 4.488281 -6.226562 4.34375 -6.34375 C 4.195312 -6.46875 4.03125 -6.566406 3.84375 -6.640625 C 3.5625 -6.753906 3.300781 -6.8125 3.0625 -6.8125 C 2.832031 -6.8125 2.640625 -6.796875 2.484375 -6.765625 C 2.328125 -6.742188 2.148438 -6.6875 1.953125 -6.59375 C 1.753906 -6.507812 1.582031 -6.390625 1.4375 -6.234375 C 1.289062 -6.085938 1.164062 -5.878906 1.0625 -5.609375 C 0.96875 -5.335938 0.921875 -5.023438 0.921875 -4.671875 L 0.921875 -2.640625 C 0.921875 -2.285156 0.972656 -1.972656 1.078125 -1.703125 C 1.191406 -1.429688 1.328125 -1.222656 1.484375 -1.078125 C 1.640625 -0.929688 1.820312 -0.8125 2.03125 -0.71875 C 2.363281 -0.570312 2.675781 -0.5 2.96875 -0.5 C 3.257812 -0.5 3.503906 -0.523438 3.703125 -0.578125 C 3.910156 -0.628906 4.117188 -0.722656 4.328125 -0.859375 C 4.753906 -1.117188 4.96875 -1.617188 4.96875 -2.359375 C 4.96875 -2.472656 4.984375 -2.546875 5.015625 -2.578125 C 5.054688 -2.617188 5.109375 -2.640625 5.171875 -2.640625 L 5.25 -2.640625 C 5.394531 -2.640625 5.46875 -2.570312 5.46875 -2.4375 C 5.46875 -2.007812 5.398438 -1.632812 5.265625 -1.3125 C 5.128906 -1 4.96875 -0.757812 4.78125 -0.59375 C 4.601562 -0.4375 4.394531 -0.304688 4.15625 -0.203125 C 3.78125 -0.0546875 3.453125 0.015625 3.171875 0.015625 C 2.890625 0.015625 2.644531 0 2.4375 -0.03125 C 2.238281 -0.0703125 2.007812 -0.148438 1.75 -0.265625 C 1.5 -0.390625 1.28125 -0.539062 1.09375 -0.71875 C 0.90625 -0.894531 0.742188 -1.144531 0.609375 -1.46875 C 0.484375 -1.800781 0.421875 -2.179688 0.421875 -2.609375 L 0.421875 -4.71875 C 0.421875 -5.15625 0.484375 -5.539062 0.609375 -5.875 C 0.734375 -6.207031 0.882812 -6.460938 1.0625 -6.640625 C 1.25 -6.816406 1.46875 -6.960938 1.71875 -7.078125 Z M 1.71875 -7.078125 "/></g></g></g><g fill="#ffffff" fill-opacity="1"><g transform="translate(59.958386, 20.712038)"><g><path d="M 1.8125 -7.03125 C 2.0625 -7.132812 2.28125 -7.195312 2.46875 -7.21875 C 2.65625 -7.25 2.847656 -7.265625 3.046875 -7.265625 C 3.242188 -7.265625 3.4375 -7.25 3.625 -7.21875 C 3.820312 -7.195312 4.046875 -7.128906 4.296875 -7.015625 C 4.546875 -6.898438 4.757812 -6.753906 4.9375 -6.578125 C 5.113281 -6.398438 5.265625 -6.148438 5.390625 -5.828125 C 5.515625 -5.503906 5.578125 -5.132812 5.578125 -4.71875 L 5.578125 -2.609375 C 5.578125 -2.171875 5.507812 -1.785156 5.375 -1.453125 C 5.25 -1.117188 5.09375 -0.863281 4.90625 -0.6875 C 4.726562 -0.507812 4.519531 -0.363281 4.28125 -0.25 C 3.894531 -0.0703125 3.488281 0.015625 3.0625 0.015625 C 2.601562 0.015625 2.21875 -0.0625 1.90625 -0.21875 C 1.59375 -0.375 1.34375 -0.539062 1.15625 -0.71875 C 0.976562 -0.894531 0.828125 -1.144531 0.703125 -1.46875 C 0.578125 -1.800781 0.515625 -2.179688 0.515625 -2.609375 L 0.515625 -4.71875 C 0.515625 -5.15625 0.578125 -5.535156 0.703125 -5.859375 C 0.835938 -6.179688 0.992188 -6.429688 1.171875 -6.609375 C 1.347656 -6.785156 1.5625 -6.925781 1.8125 -7.03125 Z M 4.03125 -6.5625 C 3.832031 -6.644531 3.65625 -6.695312 3.5 -6.71875 C 3.351562 -6.75 3.203125 -6.765625 3.046875 -6.765625 C 2.890625 -6.765625 2.734375 -6.75 2.578125 -6.71875 C 2.429688 -6.695312 2.257812 -6.644531 2.0625 -6.5625 C 1.863281 -6.476562 1.691406 -6.363281 1.546875 -6.21875 C 1.398438 -6.070312 1.273438 -5.863281 1.171875 -5.59375 C 1.078125 -5.332031 1.03125 -5.023438 1.03125 -4.671875 L 1.03125 -2.640625 C 1.03125 -2.285156 1.078125 -1.972656 1.171875 -1.703125 C 1.273438 -1.429688 1.398438 -1.222656 1.546875 -1.078125 C 1.703125 -0.929688 1.875 -0.8125 2.0625 -0.71875 C 2.257812 -0.625 2.4375 -0.5625 2.59375 -0.53125 C 2.75 -0.507812 2.898438 -0.5 3.046875 -0.5 C 3.203125 -0.5 3.359375 -0.507812 3.515625 -0.53125 C 3.671875 -0.5625 3.84375 -0.625 4.03125 -0.71875 C 4.226562 -0.8125 4.398438 -0.929688 4.546875 -1.078125 C 4.691406 -1.222656 4.816406 -1.429688 4.921875 -1.703125 C 5.023438 -1.972656 5.078125 -2.285156 5.078125 -2.640625 L 5.078125 -4.671875 C 5.078125 -5.023438 5.023438 -5.332031 4.921875 -5.59375 C 4.816406 -5.863281 4.691406 -6.070312 4.546875 -6.21875 C 4.398438 -6.363281 4.226562 -6.476562 4.03125 -6.5625 Z M 4.03125 -6.5625 "/></g></g></g><g fill="#ffffff" fill-opacity="1"><g transform="translate(66.355475, 20.712038)"><g><path d="M 0.734375 -7.265625 L 0.84375 -7.265625 C 0.894531 -7.265625 0.941406 -7.242188 0.984375 -7.203125 C 1.023438 -7.171875 1.046875 -7.125 1.046875 -7.0625 L 1.046875 -0.515625 L 4.515625 -0.515625 C 4.648438 -0.515625 4.71875 -0.441406 4.71875 -0.296875 L 4.71875 -0.203125 C 4.71875 -0.148438 4.695312 -0.101562 4.65625 -0.0625 C 4.625 -0.0195312 4.578125 0 4.515625 0 L 0.953125 0 C 0.671875 0 0.53125 -0.148438 0.53125 -0.453125 L 0.53125 -7.0625 C 0.53125 -7.125 0.550781 -7.171875 0.59375 -7.203125 C 0.632812 -7.242188 0.679688 -7.265625 0.734375 -7.265625 Z M 0.734375 -7.265625 "/></g></g></g><g fill="#ffffff" fill-opacity="1"><g transform="translate(71.641403, 20.712038)"><g><path d="M 0.734375 -7.265625 L 0.84375 -7.265625 C 0.894531 -7.265625 0.941406 -7.242188 0.984375 -7.203125 C 1.023438 -7.171875 1.046875 -7.125 1.046875 -7.0625 L 1.046875 -0.515625 L 4.515625 -0.515625 C 4.648438 -0.515625 4.71875 -0.441406 4.71875 -0.296875 L 4.71875 -0.203125 C 4.71875 -0.148438 4.695312 -0.101562 4.65625 -0.0625 C 4.625 -0.0195312 4.578125 0 4.515625 0 L 0.953125 0 C 0.671875 0 0.53125 -0.148438 0.53125 -0.453125 L 0.53125 -7.0625 C 0.53125 -7.125 0.550781 -7.171875 0.59375 -7.203125 C 0.632812 -7.242188 0.679688 -7.265625 0.734375 -7.265625 Z M 0.734375 -7.265625 "/></g></g></g><g fill="#ffffff" fill-opacity="1"><g transform="translate(76.927331, 20.712038)"><g><path d="M 1.0625 -7.265625 L 4.6875 -7.265625 C 4.738281 -7.265625 4.785156 -7.242188 4.828125 -7.203125 C 4.867188 -7.171875 4.890625 -7.125 4.890625 -7.0625 L 4.890625 -6.96875 C 4.890625 -6.90625 4.867188 -6.851562 4.828125 -6.8125 C 4.785156 -6.78125 4.738281 -6.765625 4.6875 -6.765625 L 1.15625 -6.765625 L 1.15625 -0.515625 L 4.6875 -0.515625 C 4.738281 -0.515625 4.785156 -0.492188 4.828125 -0.453125 C 4.867188 -0.410156 4.890625 -0.359375 4.890625 -0.296875 L 4.890625 -0.203125 C 4.890625 -0.148438 4.867188 -0.101562 4.828125 -0.0625 C 4.785156 -0.0195312 4.738281 0 4.6875 0 L 1.046875 0 C 0.878906 0 0.769531 -0.0351562 0.71875 -0.109375 C 0.664062 -0.179688 0.640625 -0.285156 0.640625 -0.421875 L 0.640625 -6.875 C 0.640625 -7.007812 0.671875 -7.109375 0.734375 -7.171875 C 0.796875 -7.234375 0.90625 -7.265625 1.0625 -7.265625 Z M 1.78125 -4.03125 L 4.015625 -4.03125 C 4.078125 -4.03125 4.125 -4.007812 4.15625 -3.96875 C 4.195312 -3.925781 4.21875 -3.878906 4.21875 -3.828125 L 4.21875 -3.734375 C 4.21875 -3.585938 4.148438 -3.515625 4.015625 -3.515625 L 1.78125 -3.515625 C 1.644531 -3.515625 1.578125 -3.585938 1.578125 -3.734375 L 1.578125 -3.828125 C 1.578125 -3.878906 1.59375 -3.925781 1.625 -3.96875 C 1.664062 -4.007812 1.71875 -4.03125 1.78125 -4.03125 Z M 1.78125 -4.03125 "/></g></g></g><g fill="#ffffff" fill-opacity="1"><g transform="translate(82.22365, 20.712038)"><g><path d="M 1.71875 -7.078125 C 1.96875 -7.191406 2.1875 -7.257812 2.375 -7.28125 C 2.5625 -7.3125 2.742188 -7.328125 2.921875 -7.328125 C 3.109375 -7.328125 3.296875 -7.3125 3.484375 -7.28125 C 3.671875 -7.257812 3.878906 -7.195312 4.109375 -7.09375 C 4.335938 -6.988281 4.539062 -6.859375 4.71875 -6.703125 C 4.894531 -6.546875 5.050781 -6.332031 5.1875 -6.0625 C 5.332031 -5.789062 5.421875 -5.472656 5.453125 -5.109375 C 5.453125 -4.960938 5.382812 -4.890625 5.25 -4.890625 L 5.15625 -4.890625 C 5.03125 -4.890625 4.960938 -4.953125 4.953125 -5.078125 C 4.910156 -5.359375 4.832031 -5.609375 4.71875 -5.828125 C 4.613281 -6.054688 4.488281 -6.226562 4.34375 -6.34375 C 4.195312 -6.46875 4.03125 -6.566406 3.84375 -6.640625 C 3.5625 -6.753906 3.300781 -6.8125 3.0625 -6.8125 C 2.832031 -6.8125 2.640625 -6.796875 2.484375 -6.765625 C 2.328125 -6.742188 2.148438 -6.6875 1.953125 -6.59375 C 1.753906 -6.507812 1.582031 -6.390625 1.4375 -6.234375 C 1.289062 -6.085938 1.164062 -5.878906 1.0625 -5.609375 C 0.96875 -5.335938 0.921875 -5.023438 0.921875 -4.671875 L 0.921875 -2.640625 C 0.921875 -2.285156 0.972656 -1.972656 1.078125 -1.703125 C 1.191406 -1.429688 1.328125 -1.222656 1.484375 -1.078125 C 1.640625 -0.929688 1.820312 -0.8125 2.03125 -0.71875 C 2.363281 -0.570312 2.675781 -0.5 2.96875 -0.5 C 3.257812 -0.5 3.503906 -0.523438 3.703125 -0.578125 C 3.910156 -0.628906 4.117188 -0.722656 4.328125 -0.859375 C 4.753906 -1.117188 4.96875 -1.617188 4.96875 -2.359375 C 4.96875 -2.472656 4.984375 -2.546875 5.015625 -2.578125 C 5.054688 -2.617188 5.109375 -2.640625 5.171875 -2.640625 L 5.25 -2.640625 C 5.394531 -2.640625 5.46875 -2.570312 5.46875 -2.4375 C 5.46875 -2.007812 5.398438 -1.632812 5.265625 -1.3125 C 5.128906 -1 4.96875 -0.757812 4.78125 -0.59375 C 4.601562 -0.4375 4.394531 -0.304688 4.15625 -0.203125 C 3.78125 -0.0546875 3.453125 0.015625 3.171875 0.015625 C 2.890625 0.015625 2.644531 0 2.4375 -0.03125 C 2.238281 -0.0703125 2.007812 -0.148438 1.75 -0.265625 C 1.5 -0.390625 1.28125 -0.539062 1.09375 -0.71875 C 0.90625 -0.894531 0.742188 -1.144531 0.609375 -1.46875 C 0.484375 -1.800781 0.421875 -2.179688 0.421875 -2.609375 L 0.421875 -4.71875 C 0.421875 -5.15625 0.484375 -5.539062 0.609375 -5.875 C 0.734375 -6.207031 0.882812 -6.460938 1.0625 -6.640625 C 1.25 -6.816406 1.46875 -6.960938 1.71875 -7.078125 Z M 1.71875 -7.078125 "/></g></g></g><g fill="#ffffff" fill-opacity="1"><g transform="translate(88.184585, 20.712038)"><g><path d="M 2.5 -6.484375 L 2.609375 -6.484375 C 2.742188 -6.484375 2.8125 -6.414062 2.8125 -6.28125 L 2.8125 -0.203125 C 2.8125 -0.148438 2.789062 -0.101562 2.75 -0.0625 C 2.71875 -0.0195312 2.671875 0 2.609375 0 L 2.5 0 C 2.4375 0 2.382812 -0.0195312 2.34375 -0.0625 C 2.3125 -0.101562 2.296875 -0.148438 2.296875 -0.203125 L 2.296875 -6.28125 C 2.296875 -6.414062 2.363281 -6.484375 2.5 -6.484375 Z M 0.265625 -7.265625 L 4.875 -7.265625 C 4.9375 -7.265625 4.984375 -7.242188 5.015625 -7.203125 C 5.054688 -7.171875 5.078125 -7.125 5.078125 -7.0625 L 5.078125 -6.953125 C 5.078125 -6.828125 5.007812 -6.765625 4.875 -6.765625 L 0.265625 -6.765625 C 0.117188 -6.765625 0.046875 -6.828125 0.046875 -6.953125 L 0.046875 -7.0625 C 0.046875 -7.125 0.0664062 -7.171875 0.109375 -7.203125 C 0.148438 -7.242188 0.203125 -7.265625 0.265625 -7.265625 Z M 0.265625 -7.265625 "/></g></g></g><g fill="#ffffff" fill-opacity="1"><g transform="translate(93.480904, 20.712038)"><g><path d="M 0.984375 -7.265625 L 1.0625 -7.265625 C 1.125 -7.265625 1.175781 -7.242188 1.21875 -7.203125 C 1.257812 -7.171875 1.28125 -7.125 1.28125 -7.0625 L 1.28125 -0.203125 C 1.28125 -0.148438 1.257812 -0.101562 1.21875 -0.0625 C 1.175781 -0.0195312 1.125 0 1.0625 0 L 0.984375 0 C 0.921875 0 0.867188 -0.0195312 0.828125 -0.0625 C 0.785156 -0.101562 0.765625 -0.148438 0.765625 -0.203125 L 0.765625 -7.0625 C 0.765625 -7.125 0.785156 -7.171875 0.828125 -7.203125 C 0.867188 -7.242188 0.921875 -7.265625 0.984375 -7.265625 Z M 0.984375 -7.265625 "/></g></g></g><g fill="#ffffff" fill-opacity="1"><g transform="translate(95.661833, 20.712038)"><g><path d="M 1.8125 -7.03125 C 2.0625 -7.132812 2.28125 -7.195312 2.46875 -7.21875 C 2.65625 -7.25 2.847656 -7.265625 3.046875 -7.265625 C 3.242188 -7.265625 3.4375 -7.25 3.625 -7.21875 C 3.820312 -7.195312 4.046875 -7.128906 4.296875 -7.015625 C 4.546875 -6.898438 4.757812 -6.753906 4.9375 -6.578125 C 5.113281 -6.398438 5.265625 -6.148438 5.390625 -5.828125 C 5.515625 -5.503906 5.578125 -5.132812 5.578125 -4.71875 L 5.578125 -2.609375 C 5.578125 -2.171875 5.507812 -1.785156 5.375 -1.453125 C 5.25 -1.117188 5.09375 -0.863281 4.90625 -0.6875 C 4.726562 -0.507812 4.519531 -0.363281 4.28125 -0.25 C 3.894531 -0.0703125 3.488281 0.015625 3.0625 0.015625 C 2.601562 0.015625 2.21875 -0.0625 1.90625 -0.21875 C 1.59375 -0.375 1.34375 -0.539062 1.15625 -0.71875 C 0.976562 -0.894531 0.828125 -1.144531 0.703125 -1.46875 C 0.578125 -1.800781 0.515625 -2.179688 0.515625 -2.609375 L 0.515625 -4.71875 C 0.515625 -5.15625 0.578125 -5.535156 0.703125 -5.859375 C 0.835938 -6.179688 0.992188 -6.429688 1.171875 -6.609375 C 1.347656 -6.785156 1.5625 -6.925781 1.8125 -7.03125 Z M 4.03125 -6.5625 C 3.832031 -6.644531 3.65625 -6.695312 3.5 -6.71875 C 3.351562 -6.75 3.203125 -6.765625 3.046875 -6.765625 C 2.890625 -6.765625 2.734375 -6.75 2.578125 -6.71875 C 2.429688 -6.695312 2.257812 -6.644531 2.0625 -6.5625 C 1.863281 -6.476562 1.691406 -6.363281 1.546875 -6.21875 C 1.398438 -6.070312 1.273438 -5.863281 1.171875 -5.59375 C 1.078125 -5.332031 1.03125 -5.023438 1.03125 -4.671875 L 1.03125 -2.640625 C 1.03125 -2.285156 1.078125 -1.972656 1.171875 -1.703125 C 1.273438 -1.429688 1.398438 -1.222656 1.546875 -1.078125 C 1.703125 -0.929688 1.875 -0.8125 2.0625 -0.71875 C 2.257812 -0.625 2.4375 -0.5625 2.59375 -0.53125 C 2.75 -0.507812 2.898438 -0.5 3.046875 -0.5 C 3.203125 -0.5 3.359375 -0.507812 3.515625 -0.53125 C 3.671875 -0.5625 3.84375 -0.625 4.03125 -0.71875 C 4.226562 -0.8125 4.398438 -0.929688 4.546875 -1.078125 C 4.691406 -1.222656 4.816406 -1.429688 4.921875 -1.703125 C 5.023438 -1.972656 5.078125 -2.285156 5.078125 -2.640625 L 5.078125 -4.671875 C 5.078125 -5.023438 5.023438 -5.332031 4.921875 -5.59375 C 4.816406 -5.863281 4.691406 -6.070312 4.546875 -6.21875 C 4.398438 -6.363281 4.226562 -6.476562 4.03125 -6.5625 Z M 4.03125 -6.5625 "/></g></g></g><g fill="#ffffff" fill-opacity="1"><g transform="translate(102.058922, 20.712038)"><g><path d="M 0.921875 -7.296875 C 1.109375 -7.296875 1.253906 -7.210938 1.359375 -7.046875 C 2.691406 -4.828125 3.921875 -2.71875 5.046875 -0.71875 L 5.046875 -7.0625 C 5.046875 -7.125 5.066406 -7.171875 5.109375 -7.203125 C 5.148438 -7.242188 5.195312 -7.265625 5.25 -7.265625 L 5.359375 -7.265625 C 5.421875 -7.265625 5.46875 -7.242188 5.5 -7.203125 C 5.539062 -7.171875 5.5625 -7.125 5.5625 -7.0625 L 5.5625 -0.390625 C 5.5625 -0.242188 5.519531 -0.140625 5.4375 -0.078125 C 5.363281 -0.015625 5.253906 0.015625 5.109375 0.015625 C 4.960938 0.015625 4.84375 -0.0546875 4.75 -0.203125 L 1.0625 -6.53125 L 1.0625 -0.203125 C 1.0625 -0.148438 1.039062 -0.101562 1 -0.0625 C 0.957031 -0.0195312 0.910156 0 0.859375 0 L 0.734375 0 C 0.679688 0 0.632812 -0.0195312 0.59375 -0.0625 C 0.5625 -0.101562 0.546875 -0.148438 0.546875 -0.203125 L 0.546875 -6.875 C 0.546875 -7.15625 0.671875 -7.296875 0.921875 -7.296875 Z M 0.921875 -7.296875 "/></g></g></g></svg>